<svg id="Layer_1" data-name="Layer 1" xmlns="http://www.w3.org/2000/svg" xmlns:xlink="http://www.w3.org/1999/xlink" width="3.09397in" height="2.28728in" viewBox="0 0 222.76566 164.68381"><defs><style>.cls-1{fill:url(#radial-gradient);}.cls-2{fill:url(#radial-gradient-2);}.cls-3{fill:#13027d;}.cls-4{fill:#fff;}.cls-5{fill:#b3b3b3;}</style><radialGradient id="radial-gradient" cx="56.12487" cy="158.08206" r="188.36879" gradientTransform="translate(174.63713 205.48428) rotate(-153.63561)" gradientUnits="userSpaceOnUse"><stop offset="0" stop-color="#5900a1"/><stop offset="0.82172" stop-color="#9400a1"/></radialGradient><radialGradient id="radial-gradient-2" cx="181.13129" cy="158.26611" r="201.09905" gradientTransform="translate(247.76893 106.60559) rotate(153.60082)" gradientUnits="userSpaceOnUse"><stop offset="0" stop-color="#009db9"/><stop offset="0.77162" stop-color="#45bdd6"/></radialGradient></defs><path class="cls-1" d="M14.61552,34.33115H190.043a18.1071,18.1071,0,0,1,18.1071,18.1071v77.81137a0,0,0,0,1,0,0H32.72263a18.1071,18.1071,0,0,1-18.1071-18.1071V34.33115a0,0,0,0,1,0,0Z" transform="translate(247.72388 106.55888) rotate(153.63561)"/><path class="cls-2" d="M32.7226,34.39946H208.15012a0,0,0,0,1,0,0v77.81137a18.1071,18.1071,0,0,1-18.1071,18.1071H14.6155a0,0,0,0,1,0,0V52.50656a18.1071,18.1071,0,0,1,18.1071-18.1071Z" transform="translate(174.5319 205.65216) rotate(-153.60082)"/><polygon class="cls-3" points="219.383 82.462 111.468 28.895 3.521 82.397 111.435 135.964 219.383 82.462"/><path class="cls-4" d="M61.93316,69.97258h9.97735c5.43893,0,9.97734,4.09579,9.97734,9.256,0,5.09518-4.4402,9.37081-9.97734,9.37081h-2.965v7.78213H61.93316ZM75.1217,79.26177a2.94606,2.94606,0,0,0-3.21119-2.81835h-2.965v5.68513l2.965.01659A2.96572,2.96572,0,0,0,75.1217,79.26177Z"/><path class="cls-4" d="M86.21325,69.97258H96.1906c5.43893,0,9.97734,4.09579,9.97734,9.256,0,5.09518-4.4402,9.37081-9.97734,9.37081h-2.965v7.78213H86.21325Zm13.18854,9.28919a2.94606,2.94606,0,0,0-3.21119-2.81835h-2.965v5.68513l2.965.01659A2.96572,2.96572,0,0,0,99.40179,79.26177Z"/><path class="cls-4" d="M127.61376,89.79588v6.58565H110.49334v-26.409h7.01235v19.8233Z"/><path class="cls-4" d="M130.56284,91.90881l4.24377-4.16082a6.4361,6.4361,0,0,0,5.35664,2.60466c1.49113,0,2.94908-.54084,2.94908-1.62186,0-1.35973-2.70288-2.55555-5.29161-3.70227-3.34193-1.442-6.20938-3.63723-6.20938-7.61822,0-4.57093,4.342-7.83124,9.35488-7.83124,4.03009,0,7.17559,1.90058,8.20817,4.50524l-4.04668,3.89936c-.78638-1.39225-2.81835-1.99879-4.07987-1.99879-1.44135,0-2.47326.73727-2.47326,1.63845,0,1.21241,1.86739,1.60527,4.71825,2.80109,4.1283,1.73666,6.86436,4.2597,6.86436,8.15906,0,5.02948-4.68574,8.1584-9.97735,8.1584C135.83852,96.74187,131.89005,94.82537,130.56284,91.90881Z"/><path class="cls-4" d="M154.7122,69.97258h7.01234v26.409H154.7122Z"/><path class="cls-5" d="M201.841,17.21312v.60952h-1.04516v2.82742h-.73142V17.82264h-1.04517v-.60952Zm2.3984,1.88054c.02268.05481.04536.10584.06615.154a1.233,1.233,0,0,1,.05575.154c.0189-.05387.03686-.10584.052-.154a.80207.80207,0,0,1,.06992-.154l.98091-1.75863a.29566.29566,0,0,1,.09922-.09923.32455.32455,0,0,1,.13892-.02268h.61519v3.43694h-.63882V18.53044l.05292-.4347-1.06312,1.95047a.26028.26028,0,0,1-.25514.16254h-.1049a.24971.24971,0,0,1-.24948-.16254l-1.06784-1.93346.04631.41769v2.11962h-.63882V17.21312h.61519a.30962.30962,0,0,1,.13986.02268.471.471,0,0,1,.10395.09923Z"/></svg>